<svg version="1.1" xmlns="http://www.w3.org/2000/svg" xmlns:xlink="http://www.w3.org/1999/xlink" width="796.96508" height="422.56825" viewBox="0,0,796.96508,422.56825"><g transform="translate(88.5254,19.1365)"><g data-paper-data="{&quot;isPaintingLayer&quot;:true}" fill-rule="nonzero" stroke="none" stroke-linecap="butt" stroke-linejoin="miter" stroke-miterlimit="10" stroke-dasharray="" stroke-dashoffset="0" style="mix-blend-mode: normal"><path d="M708.43969,323.90318c0,43.92242 -176.53058,79.52857 -394.29206,79.52857c-217.76148,0 -394.29206,-35.60615 -394.29206,-79.52857c0,-43.92242 176.53058,-79.52857 394.29207,-79.52857c217.76148,0 394.29207,35.60615 394.29207,79.52857z" fill-opacity="0.50196" fill="#000000" stroke-width="0"/><text transform="translate(252.52857,337.07038) scale(1.68658,1.68658)" font-size="40" xml:space="preserve" fill="#ffffff" fill-rule="nonzero" stroke="none" stroke-width="1" stroke-linecap="butt" stroke-linejoin="miter" stroke-miterlimit="10" stroke-dasharray="" stroke-dashoffset="0" font-family="Sans Serif" font-weight="normal" text-anchor="start" style="mix-blend-mode: normal"><tspan x="0" dy="0">YOU</tspan></text><path d="M700.05873,60.39207c0,43.92242 -176.53058,79.52857 -394.29206,79.52857c-217.76148,0 -394.29206,-35.60615 -394.29206,-79.52857c0,-43.92242 176.53058,-79.52857 394.29207,-79.52857c217.76148,0 394.29206,35.60615 394.29206,79.52857z" fill-opacity="0.50196" fill="#000000" stroke-width="0"/><text transform="translate(198.65238,80.69577) scale(1.68658,1.68658)" font-size="40" xml:space="preserve" fill="#ffffff" fill-rule="nonzero" stroke="none" stroke-width="1" stroke-linecap="butt" stroke-linejoin="miter" stroke-miterlimit="10" stroke-dasharray="" stroke-dashoffset="0" font-family="Sans Serif" font-weight="normal" text-anchor="start" style="mix-blend-mode: normal"><tspan x="0" dy="0">DEALER</tspan></text></g></g></svg>