<svg version="1.1" xmlns="http://www.w3.org/2000/svg" xmlns:xlink="http://www.w3.org/1999/xlink" width="231.19967" height="182" viewBox="0,0,231.19967,182"><g transform="translate(-203.90017,-89)"><g data-paper-data="{&quot;isPaintingLayer&quot;:true}" fill-rule="nonzero" stroke-linecap="butt" stroke-linejoin="miter" stroke-miterlimit="10" stroke-dasharray="" stroke-dashoffset="0" style="mix-blend-mode: normal"><path d="M230.5,180c0,-49.42948 40.07052,-89.5 89.5,-89.5c49.42949,0 89.5,40.07052 89.5,89.5c0,49.42949 -40.07051,89.5 -89.5,89.5c-49.42948,0 -89.5,-40.07051 -89.5,-89.5z" fill="#864444" stroke="#000000" stroke-width="3"/><path d="M259.40491,226.73466c4.42272,7.65012 -3.81383,20.68628 -18.39686,29.1171c-14.58303,8.43081 -29.99024,9.0637 -34.41296,1.41359c-4.42272,-7.65012 3.81383,-20.68628 18.39686,-29.1171c14.58303,-8.43081 29.99023,-9.0637 34.41295,-1.41359z" fill="#864444" stroke="#000000" stroke-width="3"/><path d="M414.00805,232.14825c14.58303,8.43081 22.81959,21.46698 18.39686,29.1171c-4.42272,7.65011 -19.82993,7.01723 -34.41296,-1.41359c-14.58303,-8.43082 -22.81958,-21.46698 -18.39686,-29.1171c4.42272,-7.65011 19.82992,-7.01723 34.41295,1.41359z" data-paper-data="{&quot;index&quot;:null}" fill="#864444" stroke="#000000" stroke-width="3"/><path d="M315.5,161c0,17.12083 -12.08831,31 -27,31c-8.14865,0 -28.12085,11.18875 -33.07138,4.63545c-4.10874,-5.43897 18.15969,-66.63545 33.07138,-66.63545c14.91169,0 27,13.87917 27,31z" fill="#000000" stroke="none" stroke-width="0"/><path d="M379.5,157.83333c0,6.2785 5.95366,20.5951 0.56395,24.52583c-4.8035,3.5032 -54.56395,-12.65171 -54.56395,-24.52583c0,-11.87412 12.08831,-21.5 27,-21.5c14.91169,0 27,9.62588 27,21.5z" fill="#000000" stroke="none" stroke-width="0"/><path d="M382.5,205.83333c0,3.16731 -8.99449,8.92026 -15.01743,18.98676c-3.98787,6.66518 -3.67781,17.84222 -9.3593,21.99017c-11.92192,8.70398 -27.14382,3.18973 -37.95661,3.18973c-23.74824,0 -58,-31.50168 -58,-41.16667c0,-9.66498 34.25176,6.16667 58,6.16667c23.74824,0 62.33333,-18.83165 62.33333,-9.16667z" fill="#ffffff" stroke="#000000" stroke-width="3"/></g></g></svg>